# xmcd CD database file
#
# Track frame offsets:
#	150
#	21604
#	40091
#	59366
#	80570
#	101078
#	120422
#	139987
#	159973
#	181453
#	201000
#	219871
#	249156
#
# Disc length: 3326 seconds
#
# Revision: 2
# Processed by: cddbd v1.4b41PL1 Copyright (c) Steve Scherf et al.
# Submitted via: Feurio! 1.50.2ß - http://www.feurio.com
#
DISCID=ae0cfc0d
DTITLE=Eros Ramazotti - Stilelibero
DYEAR=1900
DGENRE=
TTITLE0=L'Omera Del Gigante
TTITLE1=Fuoco Nel Fuoco
TTITLE2=Lo Spirito Degli Alberi
TTITLE3=Un Angelo Non E
TTITLE4=L'Aquila E Il Condor
TTITLE5=Piu Che Puoi (Duetto Con Cher)
TTITLE6=Il Mio Amore Per Te
TTITLE7=E Ancor Mi Chiedo
TTITLE8=Improvvisa Luce Ad Est
TTITLE9=Nell'Azzurrita
TTITLE10=Amica Donna Mia
TTITLE11=Per Me Per Sempre
TTITLE12=Traccia Interattiva [CD Rom)
EXTD=74321 792232 (c) BMG\r\n\r\nPresented By Mr. Brat
EXTT0=
EXTT1=
EXTT2=
EXTT3=
EXTT4=
EXTT5=
EXTT6=
EXTT7=
EXTT8=
EXTT9=
EXTT10=
EXTT11=
EXTT12=
PLAYORDER=
